# xmcd
#
# Track frame offsets: 
#        150
#        10514
#        26077
#        41217
#        51674
#        69947
#        80689
#        101821
#        113266
#        127334
#        144032
#
# Disc length: 2014 seconds
#
# Revision: 0
# Processed by: cddbd v1.5.2PL0 Copyright (c) Steve Scherf et al.
# Submitted via: ExactAudioCopy v1.0b1
#
DISCID=9207dc0b
DTITLE=P.D. Smith - Black Tide Rising: P.D. Smith Sings The Blues (Fea
DTITLE=turing The Homosassa Boogie)
DYEAR=2010
DGENRE=Blues
TTITLE0=Schoolin' Them Dice
TTITLE1=Last Chance
TTITLE2=Black Tide Rising
TTITLE3=Some Fools Call It Luck
TTITLE4=Better Than Before (It's Not Good Enough)
TTITLE5=The Homosassa Boogie
TTITLE6=A Single Red Rose (On A Cool White Linen Sheet)
TTITLE7=Dodging Through Waldo
TTITLE8=Jimmy's Blues
TTITLE9=Daddy Wiggler
TTITLE10=Blues For Breakfast
EXTD=
EXTT0=
EXTT1=
EXTT2=
EXTT3=
EXTT4=
EXTT5=
EXTT6=
EXTT7=
EXTT8=
EXTT9=
EXTT10=
PLAYORDER=
